<?xml version="1.0" encoding="utf-8"?>
<!-- Generator: Adobe Illustrator 25.0.0, SVG Export Plug-In . SVG Version: 6.00 Build 0)  -->
<svg version="1.1" id="Layer_1" xmlns="http://www.w3.org/2000/svg" xmlns:xlink="http://www.w3.org/1999/xlink" x="0px" y="0px"
	 viewBox="0 0 500 500" style="enable-background:new 0 0 500 500;" xml:space="preserve">
<style type="text/css">
	.st0{fill-rule:evenodd;clip-rule:evenodd;fill:#E2A02B;}
	.st1{clip-path:url(#SVGID_2_);}
	.st2{fill-rule:evenodd;clip-rule:evenodd;fill:#5C737F;}
	.st3{fill:#FFFFFF;}
</style>
<g>
	<g>
		<path class="st0" d="M321.9,139.5c-0.4-0.4-0.6-0.8-0.8-1.4l-2.5-9.1c-0.1-0.4-0.4-0.7-0.8-0.8s-0.6-0.3-0.8-0.6l-0.9-2
			c-0.2-0.4-0.5-0.6-0.9-0.6H315c-0.4,0-0.7-0.2-0.9-0.6l-0.6-1.4c-0.1-0.2-0.3-0.4-0.5-0.5s-0.4-0.2-0.7-0.1l-0.5,0.1
			c-0.5,0.1-0.8-0.1-1.1-0.5l-0.5-0.8c-0.1-0.2-0.3-0.4-0.6-0.5c-0.3-0.1-0.5-0.1-0.8,0c-2.1,0.9-7.5,3.2-9.7,4.9
			c-0.7-0.2-1.5-0.3-2.3-0.4c-0.3,0-0.6,0.1-0.8,0.3c-0.5,0.4-0.8,0.9-0.9,1.5c-0.1,0.4,0,0.8,0.3,1.1c0.7,0.7,1.3,1.3,2.1,1.9
			c3.3,2.9,4.8,5.8,6.5,7.5c2.6,2.8,6.7,3.4,7.2,5c-0.4,5.9-5.4,11.8-5.4,11.8c-8.6,6.8-9.1,12.8-9,14.1c0,0.1,0,0.1-0.1,0.2
			c-0.1,0-0.1,0-0.2,0c-6.8-1.8-13.1,2.3-14.5,6.3c0,0.1-0.1,0.2-0.2,0.1c-10.4-3.4-15.6,3.2-16.4,4.3c-0.1,0.1-0.2,0.1-0.3,0
			c-1.3-1.6-3-2.8-5-3.4l-0.3-3.9c1.3-2.4,2.2-4.9,2.6-7.6c3.2-2.8,3-9.3,3-9.3c0-0.4-0.2-0.8-0.6-1.1c-0.3-0.3-0.7-0.4-1.2-0.4
			c0.3-3.9,0-7.8-0.9-11.7c-0.1-0.5-0.3-0.9-0.7-1.3c-2.1-2.1-5.1-4.1-11.9-4.1s-9.8,2-11.9,4.1c-0.3,0.4-0.6,0.8-0.7,1.3
			c-0.9,3.8-1.2,7.7-0.9,11.7c-0.2,0-0.4,0-0.6,0.1c-0.2,0.1-0.4,0.2-0.5,0.3c-0.2,0.1-0.3,0.3-0.4,0.5c-0.1,0.2-0.2,0.4-0.2,0.6
			c0,0-0.2,6.5,3,9.3c0.4,2.7,1.2,5.2,2.6,7.6l-0.3,3.9c-2,0.6-3.6,1.7-5,3.4c-0.1,0.1-0.2,0.1-0.3,0c-0.8-1.1-6.1-7.7-16.4-4.3
			c-0.1,0-0.2,0-0.2-0.1c-1.4-3.9-7.7-8.1-14.5-6.3c-0.1,0-0.1,0-0.2,0c0,0-0.1-0.1-0.1-0.2c0-1.3-0.4-7.3-9-14.1
			c0,0-5-5.9-5.4-11.8c0.5-1.6,4.6-2.3,7.2-5c1.6-1.7,3.1-4.6,6.4-7.5c0.7-0.6,1.4-1.2,2.1-1.9c0.3-0.3,0.4-0.7,0.3-1.1
			c-0.1-0.6-0.4-1.1-0.9-1.5c-0.2-0.2-0.5-0.3-0.8-0.3c-0.8,0-1.5,0.1-2.3,0.4c-2.2-1.7-7.6-4.1-9.7-4.9c-0.2-0.1-0.5-0.1-0.8,0
			s-0.5,0.2-0.6,0.5l-0.5,0.8c-0.2,0.4-0.6,0.6-1.1,0.5l-0.5-0.1c-0.2,0-0.5,0-0.7,0.1s-0.4,0.3-0.5,0.5l-0.6,1.4
			c-0.2,0.4-0.5,0.6-0.9,0.6h-0.3c-0.4,0-0.7,0.3-0.9,0.6l-0.9,2c-0.2,0.3-0.4,0.5-0.8,0.6c-0.4,0.1-0.7,0.4-0.8,0.8l-2.6,9.1
			c-0.2,0.5-0.4,1-0.8,1.4c-0.2,0.3-0.4,0.5-0.4,0.9c-0.1,0.3,0,0.7,0.1,1l0.4,1c0.6,4,1.4,7.9,2.5,11.8c1.2,8.4,3.4,21,7.8,23.8
			v0.3c0,1.2,0.5,2.3,1.4,3.1c7.6,6.5,9.5,10.8,20.6,15.3c0.4,0.2,0.8,0.4,1.1,0.8s0.5,0.8,0.6,1.2c2.1,10.6,4.1,23.5,15.5,33.9
			c0,0,0.1,3,0.1,7.1c1.6,1.1,3.3,2.1,5.1,3s3.6,1.6,5.5,2.2c1.9,0.6,3.8,1,5.8,1.3s3.9,0.4,5.9,0.4s4-0.1,5.9-0.4
			c2-0.3,3.9-0.7,5.8-1.3s3.7-1.3,5.5-2.2s3.5-1.9,5.1-3c0-4.1,0.1-7.1,0.1-7.1c11.4-10.4,13.3-23.3,15.5-33.9
			c0.1-0.5,0.3-0.9,0.6-1.2s0.7-0.6,1.1-0.8c11.1-4.5,12.9-8.8,20.6-15.3c0.9-0.8,1.4-1.8,1.4-3.1V178c4.3-2.8,6.5-15.3,7.8-23.8
			c1.1-3.9,1.9-7.8,2.5-11.8l0.4-1c0.1-0.3,0.2-0.6,0.1-1C322.3,140,322.2,139.7,321.9,139.5z M262.9,156c0.1-0.4,0.2-0.7,0.4-1.1
			c0-0.1,0.1-0.2,0.3-0.3c0.1-0.1,0.3-0.1,0.4,0s0.2,0.2,0.3,0.3c0.1,0.1,0.1,0.3,0,0.4c-0.2,0.4-0.3,0.8-0.4,1.1s-0.4,0.3-0.7,0.3
			C262.9,156.7,262.8,156.3,262.9,156L262.9,156z M236.8,156.8c-0.3,0.1-0.6,0-0.7-0.3c-0.1-0.3-0.2-0.7-0.4-1.1
			c-0.1-0.1-0.1-0.3,0-0.4c0.1-0.1,0.2-0.3,0.3-0.3c0.1-0.1,0.3-0.1,0.4,0c0.1,0.1,0.2,0.2,0.3,0.3c0.2,0.3,0.3,0.7,0.4,1.1
			C237.2,156.3,237.1,156.7,236.8,156.8L236.8,156.8z M310.2,135.5c-0.3,0.1-0.6,0-0.8-0.1l-0.3-0.1c-0.3-0.2-0.5-0.4-0.5-0.8v-0.3
			c0-0.2,0.1-0.4,0.3-0.6c0.9-1,1.9-1.8,3-2.5c0,0,0,0,0-0.1c0,0,0,0-0.1,0c-1.6,0.8-3.2,1.8-4.7,2.9c-0.1,1.2,1.3,2.6,1.7,3.1
			c-1.6-0.7-2.9-1.8-4-3.1c0.5,0.3,1.1,0.4,1.7,0.3c-0.8-0.4-1.3-1-1.6-1.8c0-0.3,0.1-0.5,0.4-0.7c1.4-1.3,2.9-2.4,4.5-3.3
			c0.1,0,0-0.1-0.1-0.1c-1.1,0.4-5.6,2.8-6.1,3.7c-0.1,0.6,0.1,1.2,0.5,1.7c-1-0.5-1.7-1.2-2.3-2.1c0.4,0.1,0.8,0.2,1.3,0.1
			c-0.6-0.4-1-0.8-1.3-1.5c-0.1-0.4,0.1-0.7,0.3-0.9c1.5-1.3,3.1-2.4,4.8-3.3c0,0,0,0,0-0.1c0,0,0,0-0.1,0c-1.9,0.8-3.7,1.7-5.4,2.9
			l-0.2-0.1c-0.2-0.1-0.4-0.2-0.5-0.4s-0.2-0.4-0.2-0.6s0-0.4,0.1-0.6s0.2-0.4,0.4-0.5c2.2-1.4,4.5-2.6,6.9-3.4
			c0.2-0.1,0.5-0.1,0.7,0s0.4,0.3,0.5,0.5l0.2,0.4c0.1,0.2,0.3,0.4,0.5,0.6c0.2,0.1,0.5,0.2,0.8,0.2h0.5c0.2,0,0.5,0,0.7,0.2
			s0.3,0.3,0.4,0.6l0.1,0.7c0.1,0.3,0.2,0.6,0.5,0.8c0.2,0.2,0.5,0.3,0.8,0.3h0.5c0.2,0,0.5,0.1,0.6,0.2c0.2,0.1,0.3,0.3,0.4,0.6
			l0.3,1.2c0.1,0.2,0.2,0.5,0.4,0.6c0.2,0.2,0.4,0.3,0.7,0.3c0.4,0.1,0.7,0.3,0.8,0.7c0,0.1,0,0.2,0,0.3c-0.1,0.3-0.2,0.6-0.4,0.8
			c-1.9,1.3-3.8,2.4-5.9,3.4c0.4,0.2,0.8,0.2,1.2,0c0.2,0.5,0.4,1.1,0.4,1.7c0.2-0.4,0.4-0.8,0.4-1.2c0.3-0.2,0.6-0.3,0.9-0.3
			s0.6,0.1,0.9,0.3c0.1,0.1,0.1,0.2,0.2,0.3c0,0.1,0,0.2-0.1,0.3c-0.6,0.7-1.3,1.3-2.2,1.7c-0.2,0.1-0.3,0-0.4-0.1
			C311.4,137.2,310.8,136.4,310.2,135.5L310.2,135.5z M268.6,184.6c0.1,0,0.1,0.1,0.1,0.1c0,0.1,0,0.1-0.1,0.2
			c-1.6,1.4-4.8,1.5-4.8,1.5c-2.1-1-4.1-3.7-4.5-6.2c0-0.1,0-0.1,0.1-0.2c0.1,0,0.1-0.1,0.2,0C260.3,180.2,267.6,184.3,268.6,184.6
			L268.6,184.6z M239.1,142.7c2.6-4,8.2-4.2,11-4.2s8.4,0.2,11,4.2v0.1H261c-0.7-0.6-1.6-1-2.6-1.1h-0.1v0.1
			c0.5,0.3,0.9,0.7,1.1,1.2c0,0.1,0,0.1-0.1,0.1c-3.9-0.7-6.2,2.1-9.2,2.1c-3.1,0-5.4-2.8-9.2-2.1c-0.1,0-0.1,0-0.1-0.1
			c0.3-0.5,0.6-0.9,1.1-1.2c0.1,0,0.1-0.1,0-0.1c0-0.1-0.1-0.1-0.1,0c-1,0.1-1.8,0.5-2.6,1.1c0,0-0.1,0.1-0.1,0
			C239,142.8,239,142.7,239.1,142.7L239.1,142.7z M239.8,165.3C239.8,165.2,239.8,165.2,239.8,165.3
			C239.8,165.2,239.8,165.2,239.8,165.3c0.7,0.3,1.3,0.6,2,0.8c0,0,0.1,0,0.1-0.1c0,0,0-0.1-0.1-0.1c-0.6-0.4-1-0.9-1.5-1.4
			c-0.4-0.6-0.8-1.1-1-1.8c-0.3-0.6-0.4-1.3-0.5-2s-0.1-1.4,0.1-2.1c0.8-4.2,0.2-9.9,0.2-9.9c3.1-4.3,6.5-0.3,11-0.3s7.9-3.9,11,0.3
			c0,0-0.6,5.8,0.2,9.9c0.1,0.7,0.1,1.4,0.1,2.1c-0.1,0.7-0.2,1.4-0.5,2s-0.6,1.2-1,1.8c-0.4,0.5-0.9,1-1.5,1.4c0,0,0,0,0,0.1
			s0,0,0.1,0c0.7-0.2,1.3-0.5,1.9-0.9c0,0,0,0,0.1,0c0,0,0,0,0,0.1c-0.2,1.4-0.6,2.8-1,4.2c-0.4,1.3-1.2,2.3-2.2,3.1
			c-1.2,0.9-2.3,2-3.3,3.1c0,0-1,1.3-3.8,1.3c-2.7,0-3.8-1.3-3.8-1.3c-1-1.1-2.1-2.2-3.3-3.1c-1-0.8-1.8-1.8-2.2-3.1
			C240.3,168.1,240,166.7,239.8,165.3L239.8,165.3z M257,177.2c-1,4.5-4.1,11.5-6.9,12.2c-2.8-0.7-5.9-7.7-6.9-12.2
			c0-0.1,0-0.1,0.1-0.1s0.1,0,0.2,0c1.5,2.5,4.4,4.4,6.7,4.4c2.2,0,5.2-1.9,6.7-4.4h0.1C256.9,177.1,256.9,177.1,257,177.2
			L257,177.2z M240.5,180c0.1,0,0.1,0,0.2,0c0.1,0,0.1,0.1,0.1,0.2c-0.4,2.5-2.4,5.3-4.5,6.2c0,0-3.2-0.2-4.8-1.5
			c-0.1,0-0.1-0.1-0.1-0.2c0-0.1,0.1-0.1,0.1-0.1C232.3,184.3,239.7,180.2,240.5,180L240.5,180z M218.9,177.7
			c4.4-2.6,10.7-1.5,13.1,3.1c0,1.4-5.3,2.7-9.3,0.7c-0.1,0-0.1,0-0.2,0c-0.1,0.1-0.1,0.1,0,0.2c2.1,2.8,4.6,5.1,7.7,6.8
			c2.5,1.3,5.1,1.9,7.9,1.9c5.9,0,9.3,0.1,11.3,1.6c0.2,0.1,0.4,0.2,0.6,0.2c0.2,0,0.4-0.1,0.6-0.2c2-1.5,5.4-1.6,11.4-1.6
			c2.8,0,5.4-0.6,7.9-1.9c3-1.7,5.6-4,7.7-6.8c0.1-0.1,0.1-0.1,0-0.2c-0.1-0.1-0.1-0.1-0.2,0c-4,2-9.3,0.7-9.3-0.7
			c2.5-4.6,8.7-5.6,13.1-3.1c-0.2,2.1,0,4.1,0.7,6.1c-2.9,2.9-4.9,6.4-5.9,10.4c0,0.1-0.1,0.1-0.1,0.1c-0.1,0-0.1,0-0.2-0.1
			c-0.5-1-0.8-2-0.8-3.1c0-0.1,0-0.1-0.1-0.1s-0.1,0-0.2,0.1c-1.3,2.6-1.7,5.3-1.1,8.2c1.2,3.9-0.3,7.9-4.3,9
			c-4.4,1.2-10.3,0.7-13.9,0c-0.8-0.1-1.5-0.5-2.1-1s-1.1-1.1-1.4-1.9c-0.5-1.3-0.6-6.8-0.1-8.1c0.4-0.8,1-1.5,1.8-2
			c0.1-0.1,0.1-0.1,0.1-0.2c-0.3-0.6-1.3-1.1-3.4-1.1c-2.1,0-3.2,0.5-3.4,1.1c0,0.1,0,0.2,0.1,0.2c0.8,0.5,1.4,1.1,1.8,2
			c0.5,1.2,0.4,6.8-0.1,8.1c-0.3,0.7-0.8,1.4-1.4,1.9c-0.6,0.5-1.3,0.8-2.1,1c-3.6,0.7-9.5,1.2-13.9,0c-4-1.1-5.5-5-4.3-9
			c0.6-2.9,0.2-5.6-1.1-8.2c0-0.1-0.1-0.1-0.1-0.1c-0.1,0-0.1,0.1-0.1,0.1c0,1.1-0.3,2.1-0.8,3.1c0,0.1-0.1,0.1-0.2,0.1
			c-0.1,0-0.1-0.1-0.1-0.1c-1-4-3-7.5-5.9-10.4C218.9,181.8,219.1,179.8,218.9,177.7L218.9,177.7z M182.8,130.6
			c0.1-0.4,0.4-0.7,0.8-0.7c0.2,0,0.5-0.1,0.7-0.3s0.3-0.4,0.4-0.6l0.3-1.2c0-0.2,0.2-0.4,0.3-0.6c0.2-0.1,0.4-0.2,0.6-0.2h0.5
			c0.3,0,0.6-0.1,0.9-0.3c0.2-0.2,0.4-0.5,0.5-0.8l0.1-0.7c0.1-0.2,0.2-0.4,0.4-0.6s0.4-0.2,0.7-0.2h0.5c0.3,0,0.5,0,0.8-0.2
			c0.2-0.1,0.4-0.3,0.5-0.6l0.2-0.4c0.1-0.2,0.3-0.4,0.5-0.5s0.5-0.1,0.7,0c2.4,0.9,4.7,2,6.9,3.4c0.2,0.1,0.3,0.3,0.4,0.5
			c0.1,0.2,0.1,0.4,0.1,0.6s-0.1,0.4-0.2,0.6c-0.1,0.2-0.3,0.3-0.5,0.4l-0.2,0.1c-1.7-1.2-3.5-2.1-5.4-2.9h-0.1v0.1
			c1.7,1,3.3,2.1,4.8,3.3c0.3,0.2,0.4,0.5,0.3,0.9c-0.3,0.6-0.7,1.1-1.3,1.5c0.4,0.1,0.8,0,1.3-0.1c-0.6,0.9-1.4,1.6-2.3,2.1
			c0.4-0.5,0.5-1.1,0.5-1.8c-0.5-0.9-5-3.3-6.1-3.7h-0.1v0.1c1.6,0.9,3.1,2,4.5,3.3c0.2,0.2,0.4,0.4,0.4,0.7
			c-0.3,0.8-0.9,1.4-1.6,1.8c0.6,0.1,1.1,0,1.7-0.3c-1.1,1.3-2.5,2.3-4,3.1c0.4-0.5,1.8-2,1.7-3.1c-1.5-1.1-3-2.1-4.7-2.9h-0.1v0.1
			c1.1,0.7,2.1,1.6,3,2.5c0.2,0.2,0.3,0.4,0.3,0.6v0.3c0,0.4-0.2,0.6-0.5,0.8l-0.3,0.1c-0.3,0.1-0.5,0.2-0.8,0.1
			c-0.6,0.9-1.3,1.7-2.1,2.5c-0.1,0.1-0.2,0.2-0.4,0.1c-0.9-0.4-1.6-1-2.2-1.7c-0.1-0.1-0.1-0.2-0.1-0.3s0.1-0.2,0.2-0.3
			c0.3-0.2,0.5-0.3,0.9-0.3c0.3,0,0.6,0.1,0.9,0.3c0,0.4,0.2,0.9,0.4,1.2c0-0.6,0.2-1.1,0.4-1.7c0.4,0.1,0.8,0.1,1.2,0
			c-2.1-1-4-2.1-5.9-3.4c-0.2-0.1-0.3-0.6-0.4-0.9C182.7,130.8,182.7,130.7,182.8,130.6z M182.6,140.7c0-0.1,0.1-0.1,0.1-0.1
			c0.1,0,0.1,0,0.1,0.1c1,7,3.7,12.9,6.1,15.6c0.1,0,0.1,0,0.2,0c0.1,0,0.1-0.1,0.1-0.2c-1.5-3.6-2.3-7.3-2.4-11.2
			c0-0.1,0-0.1,0.1-0.1s0.1,0,0.2,0.1c0.7,2.2,2.8,8.3,5.8,11.7c0,0,7.5,4.3,7.8,11.5c0,0.3,0,0.6-0.1,0.9c-0.1,0.3-0.3,0.5-0.5,0.7
			s-0.5,0.4-0.7,0.5c-0.3,0.1-0.6,0.1-0.9,0.1c-1.7-0.1-4.3-1.4-6.9-6.6c0-0.1-0.1-0.1-0.2-0.1c-0.1,0-0.1,0.1-0.1,0.2
			c0,0.6,0.1,1.1,0.2,1.7c0,0.1,0,0.1-0.1,0.2s-0.1,0-0.2-0.1C182.8,154.3,182.5,142,182.6,140.7L182.6,140.7z M213.8,191.3
			c-7.6-1.7-15.6-7.7-19.7-12.1c0-0.1-0.1-0.1-0.2,0c-0.1,0-0.1,0.1-0.1,0.2c0.2,1.2,0.7,2.4,1.3,3.5c0.1,0.1,0.1,0.1,0,0.2
			c-0.1,0.1-0.1,0.1-0.2,0c-0.9-0.7-1.8-1.4-2.5-2.3c-0.8-0.9-1.4-1.8-1.9-2.8s-0.9-2.1-1.1-3.2c-0.2-1.1-0.4-2.2-0.3-3.4
			c0-0.4,0.1-0.7,0.4-1s0.6-0.4,1-0.5c1,0,1.9,0.1,2.8,0.5c1.3,2.5,3.1,4.6,5.3,6.4c1.2,5.7,8.5,11.1,15.3,14.2
			c0.1,0,0.2,0.1,0.1,0.2C214,191.3,213.9,191.3,213.8,191.3z M214.8,182.4c-0.9-1.5-2.1-2.7-3.6-3.7s-3.1-1.6-4.8-1.8
			c-3.4-0.6-5.3-1.7-6.3-3.5c1.2-1.3,3.4-2.4,7.6-2.2c2.9,0.2,6.7,1.8,8.2,4.5c0,0.1,0,0.1,0,0.2c-0.1,0-0.1,0-0.2,0
			c-1-0.9-2.1-1.5-3.4-1.9c-0.1,0-0.1,0-0.1,0.1s0,0.1,0,0.2c2,1.5,3.9,5.4,3,8.1c0,0.1-0.1,0.2-0.2,0.2
			C215,182.6,214.9,182.5,214.8,182.4L214.8,182.4z M219.3,214c0,0.1,0,0.2-0.1,0.3s-0.2,0-0.3-0.1c-2.9-4.9-3.6-13-3.8-15.9
			c1.5,0.4,3,0.9,4.5,1.5C219,203.9,218.4,209.8,219.3,214L219.3,214z M230.6,229.4c0,0.1-0.1,0.2-0.2,0.1c-8.9-2.9-7-14-6.4-20.8
			c0-0.1,0-0.1,0.1-0.1s0.1,0,0.1,0.1c1,1.1,2.1,1.9,3.5,2.5C226.2,220.6,231,225.2,230.6,229.4L230.6,229.4z M248.8,235.5
			c-0.9-0.3-5-1.5-8.4,0.3c-1.3,0.6-1.6,2.1-1.6,3c0,0.1-0.1,0.1-0.1,0.1c-0.1,0-0.1,0-0.1-0.1c-0.3-0.7-0.4-1.5-0.3-2.3
			c0.1-0.8,0.3-1.5,0.7-2.2c1.8-2.3,9.8-2.8,10,1C249,235.3,249,235.4,248.8,235.5C248.8,235.5,248.8,235.5,248.8,235.5z
			 M240.4,222.5c1.1-2.2,3-3.6,5.6-3.2c0.6,0.1,1.1,0.3,1.5,0.6s0.8,0.7,1.1,1.2c0.2,0.4,0.3,0.8,0.3,1.2c0,0.1,0,0.1-0.1,0.1h-0.1
			c-2.1-1-7.5-0.7-9.2,7.5c0,0.1-0.1,0.1-0.1,0.1c-0.1,0-0.1,0-0.1-0.1C238.8,228.2,239.2,224.9,240.4,222.5L240.4,222.5z
			 M261.4,238.8c0,0.1-0.1,0.1-0.2,0.1s-0.1-0.1-0.1-0.1c0-0.9-0.3-2.4-1.6-3c-3.4-1.9-7.5-0.6-8.4-0.3H251l-0.1-0.1
			c0.3-3.8,8.2-3.3,10-1c0.4,0.7,0.7,1.4,0.7,2.2C261.9,237.3,261.7,238.1,261.4,238.8L261.4,238.8z M251.1,222.2
			c0-0.4,0.1-0.8,0.3-1.2c0.3-0.5,0.6-0.9,1.1-1.2s1-0.5,1.5-0.6c2.6-0.4,4.5,1,5.6,3.2c1.2,2.5,1.6,5.8,1.2,7.3
			c0,0.1,0,0.1-0.1,0.1s-0.1,0-0.1-0.1c-1.7-8.2-7.1-8.4-9.2-7.5c-0.1,0-0.1,0-0.1,0C251.1,222.2,251.1,222.2,251.1,222.2z
			 M265.7,225.5C265.1,224,261,215,250,215c-11.1,0-15.1,9-15.7,10.5l-0.1,0.1c-0.1,0-0.1,0-0.1-0.1c-1.5-1.9-2.5-3.9-3.1-6.2
			s-0.7-4.6-0.4-6.9c4.2,1,10,0.5,16.8-0.8c0.2,0,0.4,0,0.5,0.2s0.3,0.3,0.4,0.5c0.2,0.1,0.3,0.2,0.5,0.3s0.4,0.2,0.6,0.2
			c0.2,0,0.4,0.1,0.6,0.1c0.2,0,0.4,0,0.6-0.1c0.2-0.1,0.4-0.1,0.6-0.2c0.2-0.1,0.4-0.2,0.5-0.3c0.2-0.1,0.3-0.3,0.4-0.5
			c0.1-0.2,0.3-0.2,0.5-0.2c6.8,1.3,12.6,1.8,16.8,0.8c0.3,2.3,0.2,4.6-0.4,6.9c-0.6,2.3-1.6,4.4-3.1,6.2l-0.1,0.1
			C265.8,225.6,265.7,225.6,265.7,225.5L265.7,225.5z M269.6,229.6c-0.1,0-0.2,0-0.2-0.1c-0.5-4.3,4.3-8.9,2.9-18.3
			c1.3-0.6,2.5-1.4,3.4-2.5c0,0,0.1-0.1,0.1,0c0.1,0,0.1,0.1,0.1,0.1C276.6,215.6,278.5,226.6,269.6,229.6L269.6,229.6z
			 M281.1,214.2c-0.1,0.1-0.2,0.2-0.3,0.1c-0.1-0.1-0.2-0.2-0.1-0.3c0.9-4.2,0.3-10.1-0.3-14.2c1.4-0.7,2.9-1.2,4.5-1.5
			C284.7,201.1,284,209.3,281.1,214.2L281.1,214.2z M284.7,182.4c-0.9-2.7,1-6.6,3-8.1c0.1,0,0.1-0.1,0-0.2c0-0.1-0.1-0.1-0.1-0.1
			c-1.3,0.3-2.4,1-3.4,1.9c-0.1,0-0.1,0-0.2,0s-0.1-0.1,0-0.2c1.6-2.7,5.3-4.3,8.2-4.5c4.2-0.2,6.5,0.9,7.6,2.2
			c-1,1.8-2.9,2.9-6.3,3.5c-1.7,0.3-3.3,0.9-4.8,1.8c-1.5,1-2.6,2.2-3.6,3.7c-0.1,0.1-0.1,0.1-0.2,0.1
			C284.8,182.5,284.7,182.5,284.7,182.4L284.7,182.4z M304.9,183c-0.1,0.1-0.1,0.1-0.2,0s-0.1-0.1,0-0.2c0.6-1.1,1.1-2.3,1.3-3.5
			c0-0.1,0-0.1-0.1-0.2c-0.1,0-0.1,0-0.2,0c-4,4.4-12.1,10.4-19.7,12.1c-0.1,0-0.2,0-0.2-0.1s0-0.2,0.1-0.2
			c6.8-3.1,14.2-8.5,15.3-14.2c2.2-1.8,4-3.9,5.3-6.4c0.9-0.4,1.8-0.6,2.8-0.5c0.4,0,0.7,0.2,1,0.5s0.4,0.6,0.4,1
			c0,1.1-0.1,2.3-0.3,3.4c-0.2,1.1-0.6,2.2-1.1,3.2s-1.1,2-1.9,2.8C306.7,181.5,305.9,182.3,304.9,183L304.9,183z M308.7,165.5
			c0,0.1-0.1,0.1-0.2,0c-0.1,0-0.1-0.1-0.1-0.2c0.1-0.7,0.2-1.3,0.2-1.7c0-0.1,0-0.1-0.1-0.2c-0.1,0-0.1,0-0.2,0.1
			c-2.6,5.2-5.1,6.5-6.9,6.6c-0.3,0-0.6,0-0.9-0.1s-0.5-0.3-0.7-0.5s-0.4-0.5-0.5-0.7c-0.1-0.3-0.2-0.6-0.1-0.9
			c0.3-7.2,7.8-11.5,7.8-11.5c3.1-3.4,5.1-9.5,5.8-11.7c0-0.1,0.1-0.1,0.2-0.1s0.1,0.1,0.1,0.2c0,3.9-0.8,7.6-2.4,11.2
			c0,0.1,0,0.1,0.1,0.2c0.1,0,0.1,0,0.2,0c2.5-2.7,5.1-8.6,6.1-15.6c0-0.1,0.1-0.1,0.1-0.1c0.1,0,0.1,0,0.1,0.1
			C317.5,142,317.3,154.3,308.7,165.5L308.7,165.5z M252.3,170.9c-1.5,0.3-3,0.3-4.6,0l-0.1,1.1c0,0,0,0.1,0.1,0
			c1.6-0.4,3.2-0.4,4.8,0l0,0L252.3,170.9L252.3,170.9L252.3,170.9z M242.8,159.9l-0.3-0.4c0.3-0.2,0.7-0.3,1-0.5h0.1v0.1
			c0,0.4,0.2,0.7,0.5,0.9c0.4,0,0.9,0,1.3-0.1c0.3-0.2,0.4-0.5,0.4-0.8c0-0.1,0-0.1,0-0.2c0,0,0-0.1,0.1,0c0.4,0.1,0.7,0.3,1,0.5
			l0.6-0.1c-1-0.9-3.6-2.4-5.7,0C242.1,159.7,242.4,159.9,242.8,159.9C242.8,160,242.8,159.9,242.8,159.9L242.8,159.9z M247.5,164.7
			L247.5,164.7c0,0.3,0.1,0.5,0.2,0.8c0.2,0.2,0.4,0.4,0.7,0.4c0.2,0,0.5,0.1,0.7,0.3c0.3,0.2,0.5,0.3,0.9,0.3
			c0.3,0,0.6-0.1,0.9-0.3c0.2-0.2,0.4-0.2,0.7-0.3c0.3,0,0.5-0.2,0.7-0.4s0.3-0.5,0.3-0.8l0,0c-0.2,0.4-0.5,0.5-1,0.5
			c-0.3-0.1-0.5,0-0.7,0.2c-0.1,0.1-0.3,0.2-0.4,0.3c-0.1,0.1-0.2,0.1-0.4,0.1s-0.3,0-0.4-0.1c-0.1-0.1-0.3-0.2-0.4-0.3
			c-0.2-0.2-0.5-0.2-0.7-0.2C248,165.2,247.7,165.1,247.5,164.7L247.5,164.7z M247.6,157.4C247.6,157.4,247.7,157.3,247.6,157.4
			l-0.2-1.5l0,0c-1.4,0-4-0.5-4.8-0.5h-0.2c-0.5,0.2-0.9,0.4-1.2,0.8c-0.3,0.4-0.5,0.8-0.7,1.2C243.3,155.8,244.9,157.4,247.6,157.4
			L247.6,157.4z M252.5,159.5l0.6,0.1c0.3-0.2,0.6-0.4,1-0.5h0.1c0,0.1,0,0.1,0,0.2c0,0.3,0.1,0.6,0.4,0.8c0.4,0.1,0.9,0.1,1.3,0.1
			c0.4-0.2,0.5-0.5,0.5-0.9v-0.1c0,0,0-0.1,0.1,0c0.4,0.1,0.7,0.3,1,0.5l-0.3,0.4c0.4-0.1,0.8-0.2,1.1-0.5
			C256.2,157.1,253.5,158.5,252.5,159.5L252.5,159.5z M254.3,169c0,0.4-0.7,0.2-0.7,0.2c-0.7-0.3-1.4-0.5-2.1-0.6h-0.1l-1.3,0.2H250
			l-1.3-0.2h-0.1c-0.7,0.2-1.4,0.4-2.1,0.6c0,0-0.8,0.2-0.7-0.2s-0.5-0.4-0.5,0c0.1,0.5,0.4,0.6,1.2,0.6c0.7,0,1.4,0,2-0.1
			c0.5,0.2,1,0.3,1.6,0.4c0.5-0.1,1-0.2,1.6-0.4c0.7,0.1,1.4,0.1,2,0.1c0.8,0,1.1-0.3,1.2-0.6C254.8,168.6,254.2,168.6,254.3,169
			L254.3,169z M252.4,157.4c2.7,0.1,4.3-1.6,7.1,0.1c-0.1-0.5-0.3-0.9-0.7-1.2c-0.3-0.4-0.7-0.6-1.2-0.8h-0.2
			c-0.9,0-3.4,0.5-4.9,0.5l0,0L252.4,157.4C252.3,157.3,252.3,157.3,252.4,157.4C252.3,157.4,252.4,157.4,252.4,157.4L252.4,157.4z"
			/>
	</g>
</g>
<g>
	<g>
		<defs>
			<rect id="SVGID_1_" x="201.6" y="121.3" width="97.3" height="134.3"/>
		</defs>
		<clipPath id="SVGID_2_">
			<use xlink:href="#SVGID_1_"  style="overflow:visible;"/>
		</clipPath>
		<g class="st1">
			<path class="st2" d="M206.2,144.3l44.1-17l44.1,17V162c1.2-2.3,2.6-4.5,4.4-6.4v-14.4l-48.5-18.7l-48.5,18.7v14.3
				c1.8,1.9,3.2,4.1,4.4,6.4V144.3z M294.4,199.2v8.1c0,1.4-0.1,2.8-0.3,4.3c-0.2,1.4-0.4,2.8-0.7,4.2c-0.3,1.4-0.7,2.8-1.1,4.1
				c-0.4,1.4-0.9,2.7-1.5,4s-1.2,2.6-1.9,3.8c-0.7,1.2-1.4,2.5-2.2,3.6c-0.8,1.2-1.7,2.3-2.6,3.4c-0.8,1.3-1.8,2.3-2.8,3.3
				s-2.1,2-3.2,2.9s-2.3,1.7-3.5,2.5s-2.4,1.5-3.7,2.2s-2.6,1.3-3.9,1.8s-2.7,1-4,1.4c-1.4,0.4-2.8,0.8-4.2,1
				c-1.4,0.3-2.8,0.5-4.2,0.6s-2.9,0.2-4.3,0.2c-1.4,0-2.9-0.1-4.3-0.2c-1.4-0.1-2.8-0.3-4.2-0.6s-2.8-0.6-4.2-1s-2.7-0.9-4-1.4
				s-2.6-1.2-3.9-1.8s-2.5-1.4-3.7-2.2s-2.3-1.6-3.5-2.5c-1.1-0.9-2.2-1.8-3.2-2.9c-1-1-2-2.1-2.9-3.1c-0.9-1.1-1.8-2.2-2.6-3.4
				s-1.6-2.4-2.2-3.6c-0.7-1.3-1.3-2.5-1.9-3.8c-0.6-1.3-1.1-2.7-1.5-4c-0.4-1.4-0.8-2.7-1.1-4.1c-0.3-1.4-0.5-2.8-0.7-4.2
				s-0.2-2.8-0.3-4.3v-8.2c-1.5-0.7-3-1.5-4.4-2.3v10.4c0,1.6,0.1,3.2,0.2,4.7c0.2,1.6,0.4,3.1,0.7,4.7c0.3,1.6,0.7,3.1,1.2,4.6
				s1,3,1.6,4.5s1.3,2.9,2,4.3s1.6,2.8,2.4,4.1c0.9,1.3,1.8,2.6,2.8,3.8s2.1,2.4,3.2,3.5c1.1,1.1,2.3,2.2,3.5,3.2s2.5,1.9,3.8,2.8
				c1.3,0.9,2.7,1.7,4.1,2.4c1.4,0.8,2.8,1.4,4.3,2s3,1.1,4.5,1.6s3.1,0.8,4.6,1.2c1.6,0.3,3.1,0.5,4.7,0.7c1.6,0.2,3.2,0.2,4.8,0.2
				s3.2-0.1,4.8-0.2c1.6-0.2,3.2-0.4,4.7-0.7c1.6-0.3,3.1-0.7,4.6-1.2s3-1,4.5-1.6s2.9-1.3,4.3-2s2.8-1.6,4.1-2.4
				c1.3-0.9,2.6-1.8,3.8-2.8c1.2-1,2.4-2.1,3.5-3.2c1.1-1.1,2.2-2.3,3.2-3.5s2-2.5,2.8-3.8c0.9-1.3,1.7-2.7,2.4-4.1
				c0.8-1.4,1.4-2.8,2-4.3s1.1-3,1.6-4.5s0.8-3,1.2-4.6c0.3-1.6,0.5-3.1,0.7-4.7c0.2-1.6,0.2-3.2,0.2-4.7v-10.5
				C297.4,197.7,296,198.5,294.4,199.2L294.4,199.2z M269.6,156.3l5.6-7.2c0-0.1,0-0.1-0.1-0.1l-2.5,1.5h-0.1v-0.1l3.5-6v-0.1h-0.1
				l-5.9,8.1v0.1h0.1l1.9-0.8h0.1c0,0,0,0,0,0.1l-2.6,4.4C269.5,156.2,269.6,156.3,269.6,156.3L269.6,156.3z M287,161.2
				C287.1,161.2,287.1,161.2,287,161.2c0-0.1,0-0.1-0.1-0.1l-6.3,2.5c0,0-0.1,0-0.1,0.1s0,0.1,0.1,0.1l1.3,0.3c0,0,0,0,0,0.1
				c0,0,0,0,0,0.1l-1.8,1.1c0,0,0,0,0,0.1c0,0,0,0,0.1,0l4.2-1.5c0,0,0,0,0-0.1s0-0.1,0-0.1l-1.5-0.3c0,0,0,0,0-0.1v-0.1L287,161.2z
				 M289.2,146.3l-18.7,14.8c-0.1,0-0.1,0.1,0,0.2c0,0.1,0.1,0.1,0.1,0.1l3.9-0.4c0.1,0,0.1,0,0.1,0.1s0,0.1,0,0.1l-3.5,3.7
				c-0.1,0.1-0.1,0.1,0,0.2c0.1,0.1,0.1,0.1,0.2,0l10.4-7.2c0.1,0,0.1-0.1,0-0.2c0-0.1-0.1-0.1-0.1-0.1l-5.3,1.3
				c-0.1,0-0.1,0-0.2-0.1c0-0.1,0-0.1,0-0.2l13.2-12.2v-0.1C289.3,146.3,289.2,146.2,289.2,146.3L289.2,146.3z M226.2,161l3.9,0.4
				c0.1,0,0.1,0,0.1-0.1s0-0.1,0-0.1l-18.7-14.8c-0.1-0.1-0.1-0.1-0.2,0c-0.1,0.1-0.1,0.1,0,0.2l13.2,12.2c0.1,0,0.1,0.1,0,0.2
				c0,0.1-0.1,0.1-0.2,0.1l-5.3-1.3c-0.1,0-0.1,0-0.1,0.1s0,0.1,0,0.2l10.4,7.2c0.1,0,0.1,0,0.2,0c0-0.1,0-0.1,0-0.2l-3.5-3.7
				c-0.1,0-0.1-0.1-0.1-0.2C226,160.9,226.1,160.9,226.2,161L226.2,161z M231.1,156.2l-2.6-4.4v-0.1c0,0,0,0,0.1,0l1.9,0.8h0.1v-0.1
				l-5.9-8.2c0-0.1-0.2,0-0.1,0.1l3.5,6v0.1c0,0,0,0-0.1,0l-2.5-1.5c-0.1,0-0.1,0-0.1,0.1l5.6,7.2
				C231,156.3,231.1,156.3,231.1,156.2C231.2,156.2,231.2,156.2,231.1,156.2L231.1,156.2z M216.1,163.8L216.1,163.8
				c0,0.1,0,0.1,0,0.1l4.2,1.5h0.1v-0.1l-1.8-1.1c0,0,0,0,0-0.1c0,0,0,0,0-0.1l1.3-0.3c0,0,0.1,0,0.1-0.1s0-0.1-0.1-0.1l-6.3-2.5
				h-0.1v0.1l4,2.2c0,0,0,0,0,0.1c0,0,0,0,0,0.1L216.1,163.8z"/>
		</g>
	</g>
</g>
<g>
	<g>
		<path class="st3" d="M250,72.8c-55.2,0-100,41.4-100,92.5s44.8,92.5,100,92.5s100-41.4,100-92.5S305.2,72.8,250,72.8z M250,251.9
			c-51.7,0-93.7-38.8-93.7-86.6c0-47.9,41.9-86.6,93.7-86.6s93.7,38.8,93.7,86.6C343.7,213.2,301.7,251.9,250,251.9z"/>
	</g>
</g>
<g>
	<g transform="translate(217.649487, 98.636285)">
	</g>
</g>
</svg>
